<svg width="96" height="35" viewBox="0 0 96 35" fill="none" xmlns="http://www.w3.org/2000/svg">
<path d="M0.299805 34.0413L3.27061 26.077L8.21981 34.0379L8.22507 34.0379L12.6782 29.1402L18.8166 32.2034L22.5808 24.8517L25.0565 11.9863L32.9787 8.92306L38.9203 0.95874L40.9008 5.24722L45.8521 6.4725L47.8327 16.2747L54.7646 22.4011L57.7353 11.9863L62.1916 16.2747L66.1526 11.9863L74.0748 26.077L77.0456 18.7253L81.791 26.4796L86.3134 22.4011L90.3333 13.7192L95.3582 9.46568L95.4795 34L8.22507 34.0379L8.22195 34.0413L8.21981 34.0379L0.299805 34.0413Z" fill="url(#paint0_linear_9717_145322)"/>
<defs>
<linearGradient id="paint0_linear_9717_145322" x1="45.1094" y1="0.958741" x2="44.7304" y2="31.5891" gradientUnits="userSpaceOnUse">
<stop stop-color="#0BB783" stop-opacity="0.5"/>
<stop offset="1" stop-color="#0BB783" stop-opacity="0"/>
</linearGradient>
</defs>
</svg>
