<svg width="40" height="45" viewBox="0 0 40 45" fill="none" xmlns="http://www.w3.org/2000/svg">
<path d="M18.5822 29.2686L12.8062 35.0179C12.0233 35.7971 12.0233 37.0605 12.8062 37.8398L18.5822 43.5891C19.365 44.3683 20.6343 44.3683 21.4172 43.5891L27.1932 37.8398C27.976 37.0605 27.976 35.7971 27.1932 35.0179L21.4172 29.2686C20.6343 28.4893 19.365 28.4893 18.5822 29.2686Z" fill="url(#paint0_linear_9538_81505)"/>
<path d="M6.00586 34.0217C6.00586 34.9114 7.08063 35.3581 7.71128 34.7305L18.5888 23.9046C19.3691 23.128 20.6302 23.128 21.4105 23.9046L32.2881 34.7305C32.9187 35.3581 33.9935 34.9114 33.9935 34.0217V28.272C33.9935 28.006 33.8875 27.7509 33.6989 27.5632L21.4105 15.3333C20.6302 14.5567 19.3691 14.5567 18.5888 15.3333L6.30044 27.5632C6.11187 27.7509 6.00586 28.006 6.00586 28.272V34.0217Z" fill="url(#paint1_linear_9538_81505)"/>
<path d="M21.4123 9.97997C20.6317 9.2014 19.3683 9.20141 18.5877 9.97997L1.70617 26.817C1.07583 27.4457 0 26.9992 0 26.1089V20.3623C0 20.0966 0.105719 19.8419 0.293826 19.6543L18.5877 1.40863C19.3683 0.630063 20.6317 0.630064 21.4123 1.40863L39.7062 19.6543C39.8943 19.8419 40 20.0966 40 20.3623V26.1089C40 26.9992 38.9242 27.4457 38.2938 26.817L21.4123 9.97997Z" fill="url(#paint2_linear_9538_81505)"/>
<defs>
<linearGradient id="paint0_linear_9538_81505" x1="19.7618" y1="0.167999" x2="20.0499" y2="44.371" gradientUnits="userSpaceOnUse">
<stop stop-color="#42A5F5"/>
<stop offset="0.51" stop-color="#0176FB"/>
<stop offset="1" stop-color="#1463E8"/>
</linearGradient>
<linearGradient id="paint1_linear_9538_81505" x1="19.7888" y1="0.168291" x2="20.077" y2="44.3712" gradientUnits="userSpaceOnUse">
<stop stop-color="#42A5F5"/>
<stop offset="0.51" stop-color="#0176FB"/>
<stop offset="1" stop-color="#1463E8"/>
</linearGradient>
<linearGradient id="paint2_linear_9538_81505" x1="19.8418" y1="0.159231" x2="20.1156" y2="42.1655" gradientUnits="userSpaceOnUse">
<stop stop-color="#42A5F5"/>
<stop offset="0.51" stop-color="#0176FB"/>
<stop offset="1" stop-color="#1463E8"/>
</linearGradient>
</defs>
</svg>
