<?xml version="1.0" standalone="no"?>
<!DOCTYPE svg PUBLIC "-//W3C//DTD SVG 20010904//EN"
 "http://www.w3.org/TR/2001/REC-SVG-20010904/DTD/svg10.dtd">
<svg version="1.0" xmlns="http://www.w3.org/2000/svg"
 width="1200" height="800" viewBox="0 0 2000.000000 2000.000000"
 preserveAspectRatio="xMidYMid meet">

<g transform="translate(0.000000,2000.000000) scale(0.100000,-0.100000)"
fill="#FF0000" stroke="none">
<path d="M856 19989 c-122 -29 -246 -140 -318 -285 l-43 -87 -3 -151 -3 -151
94 -255 c615 -1662 1592 -4059 4242 -10405 1379 -3303 1973 -4735 2463 -5940
415 -1020 773 -1937 868 -2223 52 -156 133 -316 196 -386 79 -89 175 -125 252
-96 62 23 280 256 504 539 64 80 1143 1392 2397 2916 3828 4649 6035 7338
7121 8675 597 735 703 874 810 1059 46 81 48 87 52 176 5 101 -14 219 -49 308
-51 131 -116 208 -399 472 -167 157 -519 495 -1150 1105 -1538 1489 -1931
1850 -2165 1987 -128 76 -169 86 -820 207 -341 63 -924 172 -1295 241 -7997
1491 -12533 2313 -12700 2304 -8 -1 -32 -5 -54 -10z m5519 -2185 c1628 -300
3532 -651 4230 -779 699 -129 1777 -328 2397 -442 621 -115 1127 -211 1125
-215 -1 -3 -900 -763 -1997 -1688 -1097 -926 -2018 -1703 -2047 -1727 -29 -25
-57 -43 -62 -41 -9 3 -6561 5371 -6616 5420 -24 21 -26 26 -10 22 11 -2 1352
-250 2980 -550z m-3645 -209 c124 -105 1238 -1050 2475 -2100 1238 -1050 2696
-2287 3240 -2749 545 -461 998 -846 1008 -855 16 -16 -7 -223 -483 -4306 -572
-4909 -511 -4391 -521 -4374 -4 8 -1344 3281 -2979 7274 -1635 3993 -2978
7275 -2986 7294 -17 41 -43 60 246 -184z m13799 -2745 c1081 -996 1122 -1035
1095 -1043 -16 -4 -648 -120 -1404 -258 -756 -137 -2117 -385 -3024 -550 -907
-165 -1652 -298 -1656 -297 -4 2 859 722 1918 1600 1106 917 1931 1594 1937
1590 7 -4 517 -473 1134 -1042z m890 -2290 c-25 -35 -7764 -9357 -7767 -9355
-3 2 969 8268 972 8272 1 1 715 117 1587 258 1695 273 5212 842 5218 844 2 0
-3 -8 -10 -19z"/>
</g>
</svg>
